<?xml version="1.0"?>
<svg xmlns="http://www.w3.org/2000/svg" viewBox="0 0 512 512" width="512" height="512"><g id="Creditcard-2" data-name="Creditcard"><path d="M48,384h72a8,8,0,0,0,0-16H48a8,8,0,0,0,0,16Z"/><path d="M152,368h-8a8,8,0,0,0,0,16h8a8,8,0,0,0,0-16Z"/><path d="M48,320H208a8,8,0,0,0,8-8V280a8,8,0,0,0-8-8H48a8,8,0,0,0-8,8v32A8,8,0,0,0,48,320Zm8-32H200v16H56Z"/><path d="M464,96H96a40.045,40.045,0,0,0-40,40v8H48A40.045,40.045,0,0,0,8,184V376a40.045,40.045,0,0,0,40,40H416a40.045,40.045,0,0,0,40-40v-8h8a40.045,40.045,0,0,0,40-40V136A40.045,40.045,0,0,0,464,96ZM24,184a24.027,24.027,0,0,1,24-24H416a24.027,24.027,0,0,1,24,24v8H24Zm0,24H440v32H24ZM440,376a24.027,24.027,0,0,1-24,24H48a24.027,24.027,0,0,1-24-24V256H440Zm48-48a24.027,24.027,0,0,1-24,24h-8V184a40.045,40.045,0,0,0-40-40H72v-8a24.027,24.027,0,0,1,24-24H464a24.027,24.027,0,0,1,24,24Z"/></g></svg>
